<svg width="23" height="22" viewBox="0 0 23 22" fill="none" xmlns="http://www.w3.org/2000/svg">
<path d="M1.98916 9.35816C1.61544 12.327 4.21164 13.8748 5.55646 14.2775C4.66463 15.7878 4.87697 18.2475 5.55646 19.3695C5.85373 20.5777 8.61414 20.7503 9.93064 19.8441C10.9838 19.1192 13.0874 19.3982 13.8802 19.6284C14.9843 20.1894 16.5386 21.0179 17.8297 20.1894C19.4434 19.1537 19.2311 16.5646 18.8914 14.2775C22.1869 13.0347 22.1189 9.78968 21.8216 8.84033C21.4703 7.71838 20.2673 6.12175 18.4667 6.63957C18.2968 1.93599 15.9186 2.15175 15.5789 2.02229C15.2415 1.89372 13.1157 2.15175 12.054 4.22305C11.1028 2.56601 10.5677 2.2812 9.5909 2.02229C9.16622 2.02229 8.61414 1.75475 7.0853 2.58327C5.55646 3.41179 5.6697 5.86283 5.8962 6.89848C4.74957 6.48135 2.36287 6.38929 1.98916 9.35816Z" stroke="#941FB1" stroke-width="2"/>
<ellipse rx="2.00076" ry="2.77729" transform="matrix(-0.964876 -0.262704 0.254983 -0.966945 14.9326 6.35534)" fill="#941FB1"/>
<ellipse rx="1.77599" ry="2.50317" transform="matrix(-0.86253 -0.506006 0.494018 -0.869452 18.7247 10.5005)" fill="#941FB1"/>
<ellipse rx="1.77599" ry="2.50317" transform="matrix(0.86253 -0.506006 -0.494018 -0.869452 5.35218 10.4482)" fill="#941FB1"/>
<ellipse rx="2.00076" ry="2.77729" transform="matrix(0.964876 -0.262704 -0.254983 -0.966945 9.21433 6.35534)" fill="#941FB1"/>
<path d="M6.44825 15.9173C5.87069 19.404 7.59488 19.24 8.52918 18.7222C12.1389 17.3413 15.2391 18.4201 15.6638 18.7222C16.0885 19.0242 18.4242 19.7578 17.7022 15.9173C16.9803 12.0767 13.0308 9.78969 11.6293 10.2644C11.3321 10.2644 7.17021 11.5589 6.44825 15.9173Z" fill="#941FB1"/>
</svg>
